<?xml version="1.0" encoding="utf-8"?>
<!-- Generator: Adobe Illustrator 17.0.0, SVG Export Plug-In . SVG Version: 6.00 Build 0)  -->
<!DOCTYPE svg PUBLIC "-//W3C//DTD SVG 1.1//EN" "http://www.w3.org/Graphics/SVG/1.1/DTD/svg11.dtd">
<svg version="1.1" id="Layer_1" xmlns="http://www.w3.org/2000/svg" xmlns:xlink="http://www.w3.org/1999/xlink" x="0px" y="0px"
	 width="100px" height="100px" viewBox="0 0 100 100" enable-background="new 0 0 100 100" xml:space="preserve">
<g>
	<path d="M85.25,87.615c0,1.105-0.895,2-2,2H16.625c-1.105,0-2-0.895-2-2v-15.25c0-1.105,0.895-2,2-2H83.25c1.105,0,2,0.895,2,2
		V87.615z"/>
	<path d="M90,63.865c0,1.105-0.895,2-2,2H12c-1.105,0-2-0.895-2-2V58.49c0-1.105,0.895-2,2-2h76c1.105,0,2,0.895,2,2V63.865z"/>
	<path d="M88.192,48.987l-6.275-9.288c-1.12-1.849-2.156-2-3.26-2H67.952c-0.264,0-0.503,0.103-0.684,0.267l-0.073,0.073
		l-2.479,2.479l-0.102,0.102c-0.156,0.18-0.254,0.412-0.254,0.668c0,0.532,0.407,0.964,0.926,1.014
		c0.033,0.003,0.065,0.01,0.099,0.01c0.034,0,0.066-0.007,0.099-0.01h3.653c1.105,0,2,0.895,2,2v0.813c0,1.105-0.895,2-2,2H30.948
		c-1.105,0-2-0.895-2-2v-0.813c0-1.105,0.895-2,2-2h4.887c0.033,0.003,0.065,0.01,0.099,0.01c0.034,0,0.066-0.007,0.099-0.01
		c0.519-0.05,0.926-0.482,0.926-1.014c0-0.271-0.107-0.515-0.278-0.698l-0.048-0.048l-2.489-2.489l-0.1-0.1
		c-0.18-0.157-0.412-0.255-0.67-0.255H19.989c-1.105,0-2.141,0.151-3.26,2l-6.275,9.288c-0.943,1.108-0.537,2.795,2.744,2.795
		h36.125h36.125C88.729,51.782,89.135,50.094,88.192,48.987z"/>
	<path d="M71.125,24.995L57.101,10.971c-0.781-0.781-2.047-0.781-2.828,0L35.377,29.867c-0.781,0.781-0.781,2.047,0,2.828
		l9.243,9.243l0.12,0.12c0.174,0.146,0.39,0.245,0.635,0.245h10.688c0.25,0,0.472-0.101,0.647-0.253l0.098-0.096l14.318-14.13
		C71.906,27.042,71.906,25.776,71.125,24.995z M62.431,28.499l-8.697,8.697l-1.933,1.933c-0.534,0.534-1.399,0.534-1.933,0
		l-1.933-1.933l-3.865-3.865c-0.534-0.534-0.534-1.399,0-1.933l1.933-1.933c0.534-0.534,1.399-0.534,1.933,0l2.899,2.899l7.73-7.73
		c0.534-0.534,1.399-0.534,1.933,0l1.933,1.933C62.964,27.1,62.964,27.965,62.431,28.499z"/>
</g>
</svg>
